<svg width="128" height="25" viewBox="0 0 128 25" fill="none" xmlns="http://www.w3.org/2000/svg">
<g clip-path="url(#clip0_0_6334)">
<rect x="11.5" y="1.89331" width="15" height="15" transform="rotate(45 11.5 1.89331)" fill="white" stroke="#202020" stroke-linejoin="round"/>
<rect x="11.5" y="11.0146" width="8" height="8" transform="rotate(45 11.5 11.0146)" fill="#202020" stroke="#202020" stroke-linejoin="round"/>
<rect x="11.5" y="8.25732" width="6" height="6" transform="rotate(45 11.5 8.25732)" fill="#A0A0A0" stroke="#202020" stroke-linejoin="round"/>
<path d="M31.3274 20V4.72727H37.353C38.5064 4.72727 39.4908 4.93359 40.3061 5.34624C41.1264 5.75391 41.7504 6.3331 42.1779 7.08381C42.6104 7.82954 42.8267 8.70703 42.8267 9.71626C42.8267 10.7305 42.608 11.603 42.1705 12.3338C41.733 13.0597 41.0991 13.6165 40.2688 14.0043C39.4435 14.392 38.4442 14.5859 37.271 14.5859H33.2365V11.9908H36.7489C37.3654 11.9908 37.8775 11.9062 38.2852 11.7372C38.6928 11.5682 38.9961 11.3146 39.195 10.9766C39.3988 10.6385 39.5007 10.2184 39.5007 9.71626C39.5007 9.20916 39.3988 8.7816 39.195 8.43359C38.9961 8.08558 38.6903 7.82209 38.2777 7.64311C37.87 7.45916 37.3555 7.36719 36.734 7.36719H34.5565V20H31.3274ZM39.5753 13.0497L43.3711 20H39.8065L36.0927 13.0497H39.5753ZM48.2259 13.3778V20H45.049V4.72727H48.1364V10.5664H48.2706C48.5291 9.89027 48.9467 9.36079 49.5234 8.97798C50.1001 8.5902 50.8235 8.39631 51.6935 8.39631C52.489 8.39631 53.1825 8.57031 53.7741 8.91832C54.3707 9.26136 54.8331 9.75604 55.1612 10.4023C55.4943 11.0437 55.6584 11.8118 55.6534 12.7067V20H52.4766V13.2734C52.4815 12.5675 52.3026 12.0181 51.9396 11.6254C51.5817 11.2326 51.0795 11.0362 50.4332 11.0362C50.0007 11.0362 49.6179 11.1282 49.2848 11.3121C48.9567 11.4961 48.6982 11.7646 48.5092 12.1175C48.3253 12.4656 48.2308 12.8857 48.2259 13.3778ZM63.3289 20.2237C62.1705 20.2237 61.1688 19.9776 60.3236 19.4854C59.4834 18.9883 58.8346 18.2972 58.3772 17.4123C57.9198 16.5224 57.6911 15.4908 57.6911 14.3175C57.6911 13.1342 57.9198 12.1001 58.3772 11.2152C58.8346 10.3253 59.4834 9.63423 60.3236 9.14204C61.1688 8.64489 62.1705 8.39631 63.3289 8.39631C64.4873 8.39631 65.4866 8.64489 66.3268 9.14204C67.172 9.63423 67.8232 10.3253 68.2806 11.2152C68.738 12.1001 68.9667 13.1342 68.9667 14.3175C68.9667 15.4908 68.738 16.5224 68.2806 17.4123C67.8232 18.2972 67.172 18.9883 66.3268 19.4854C65.4866 19.9776 64.4873 20.2237 63.3289 20.2237ZM63.3438 17.7628C63.8708 17.7628 64.3108 17.6136 64.6638 17.3153C65.0168 17.0121 65.2828 16.5994 65.4617 16.0774C65.6457 15.5554 65.7377 14.9613 65.7377 14.2951C65.7377 13.6289 65.6457 13.0348 65.4617 12.5128C65.2828 11.9908 65.0168 11.5781 64.6638 11.2749C64.3108 10.9716 63.8708 10.82 63.3438 10.82C62.8119 10.82 62.3644 10.9716 62.0015 11.2749C61.6436 11.5781 61.3726 11.9908 61.1887 12.5128C61.0097 13.0348 60.9202 13.6289 60.9202 14.2951C60.9202 14.9613 61.0097 15.5554 61.1887 16.0774C61.3726 16.5994 61.6436 17.0121 62.0015 17.3153C62.3644 17.6136 62.8119 17.7628 63.3438 17.7628ZM71.0324 20V8.54545H74.0601V10.5664H74.1943C74.433 9.89524 74.8307 9.36577 75.3875 8.97798C75.9443 8.5902 76.6105 8.39631 77.3861 8.39631C78.1716 8.39631 78.8403 8.59268 79.3921 8.98544C79.944 9.37322 80.3119 9.90021 80.4958 10.5664H80.6151C80.8488 9.91016 81.2714 9.38565 81.8829 8.9929C82.4994 8.59517 83.2277 8.39631 84.0679 8.39631C85.1368 8.39631 86.0044 8.73686 86.6705 9.41797C87.3417 10.0941 87.6773 11.0536 87.6773 12.2965V20H84.5079V12.9229C84.5079 12.2866 84.3389 11.8093 84.0008 11.4911C83.6627 11.1729 83.2401 11.0138 82.733 11.0138C82.1563 11.0138 81.7064 11.1978 81.3833 11.5657C81.0601 11.9286 80.8985 12.4084 80.8985 13.005V20H77.8186V12.8558C77.8186 12.294 77.657 11.8466 77.3339 11.5135C77.0157 11.1804 76.5956 11.0138 76.0736 11.0138C75.7206 11.0138 75.4024 11.1033 75.1191 11.2823C74.8406 11.4563 74.6194 11.7024 74.4553 12.0206C74.2913 12.3338 74.2093 12.7017 74.2093 13.1243V20H71.0324ZM90.2464 20V4.72727H93.4232V10.4695H93.5202C93.6594 10.1612 93.8607 9.84801 94.1242 9.52983C94.3927 9.20668 94.7407 8.93821 95.1682 8.72443C95.6008 8.50568 96.1377 8.39631 96.779 8.39631C97.6143 8.39631 98.3849 8.61506 99.0908 9.05256C99.7968 9.48509 100.361 10.1388 100.784 11.0138C101.206 11.8839 101.418 12.9751 101.418 14.2876C101.418 15.5653 101.211 16.6442 100.799 17.5241C100.391 18.3991 99.8341 19.0629 99.1281 19.5153C98.4271 19.9627 97.6416 20.1864 96.7716 20.1864C96.1551 20.1864 95.6306 20.0845 95.1981 19.8807C94.7705 19.6768 94.42 19.4208 94.1466 19.1126C93.8731 18.7994 93.6643 18.4837 93.5202 18.1655H93.3785V20H90.2464ZM93.3561 14.2727C93.3561 14.9538 93.4506 15.5479 93.6395 16.055C93.8284 16.5621 94.1018 16.9574 94.4598 17.2408C94.8177 17.5192 95.2528 17.6584 95.7648 17.6584C96.2819 17.6584 96.7194 17.5167 97.0773 17.2333C97.4353 16.945 97.7062 16.5472 97.8902 16.0401C98.0791 15.5281 98.1736 14.9389 98.1736 14.2727C98.1736 13.6115 98.0816 13.0298 97.8976 12.5277C97.7137 12.0256 97.4427 11.6328 97.0848 11.3494C96.7268 11.0661 96.2868 10.9244 95.7648 10.9244C95.2478 10.9244 94.8103 11.0611 94.4523 11.3345C94.0993 11.608 93.8284 11.9957 93.6395 12.4979C93.4506 13 93.3561 13.5916 93.3561 14.2727ZM110.883 15.1229V8.54545H114.06V20H111.01V17.9194H110.89C110.632 18.5906 110.202 19.13 109.6 19.5376C109.004 19.9453 108.275 20.1491 107.415 20.1491C106.65 20.1491 105.976 19.9751 105.394 19.6271C104.813 19.2791 104.358 18.7844 104.029 18.1431C103.706 17.5018 103.542 16.7337 103.537 15.8388V8.54545H106.714V15.272C106.719 15.9482 106.901 16.4826 107.259 16.8754C107.616 17.2681 108.096 17.4645 108.698 17.4645C109.081 17.4645 109.439 17.3775 109.772 17.2035C110.105 17.0245 110.373 16.761 110.577 16.413C110.786 16.065 110.888 15.6349 110.883 15.1229ZM126.131 11.8118L123.223 11.9908C123.173 11.7422 123.066 11.5185 122.902 11.3196C122.738 11.1158 122.522 10.9542 122.253 10.8349C121.99 10.7106 121.674 10.6484 121.306 10.6484C120.814 10.6484 120.399 10.7528 120.061 10.9616C119.723 11.1655 119.554 11.4389 119.554 11.782C119.554 12.0554 119.663 12.2866 119.882 12.4755C120.101 12.6644 120.476 12.8161 121.008 12.9304L123.081 13.348C124.195 13.5767 125.025 13.9446 125.572 14.4517C126.119 14.9588 126.392 15.625 126.392 16.4503C126.392 17.201 126.171 17.8597 125.729 18.4265C125.291 18.9933 124.69 19.4357 123.924 19.7539C123.163 20.0671 122.286 20.2237 121.291 20.2237C119.775 20.2237 118.567 19.908 117.667 19.2766C116.772 18.6403 116.248 17.7752 116.094 16.6815L119.218 16.5174C119.313 16.9798 119.541 17.3327 119.904 17.5763C120.267 17.815 120.732 17.9343 121.299 17.9343C121.856 17.9343 122.303 17.8274 122.641 17.6136C122.984 17.3949 123.158 17.114 123.163 16.771C123.158 16.4826 123.036 16.2464 122.798 16.0625C122.559 15.8736 122.191 15.7294 121.694 15.63L119.71 15.2347C118.592 15.011 117.759 14.6232 117.212 14.0714C116.67 13.5195 116.399 12.8161 116.399 11.9609C116.399 11.2251 116.598 10.5913 116.996 10.0593C117.399 9.52734 117.963 9.11719 118.689 8.82883C119.42 8.54048 120.275 8.39631 121.254 8.39631C122.701 8.39631 123.839 8.70206 124.67 9.31356C125.505 9.92507 125.992 10.7578 126.131 11.8118Z" fill="#2E2C34"/>
</g>
<defs>
<clipPath id="clip0_0_6334">
<rect width="128" height="25" fill="white"/>
</clipPath>
</defs>
</svg>
